<svg width="213" height="30" viewBox="0 0 213 30" fill="none" xmlns="http://www.w3.org/2000/svg">
<path d="M12.4805 5.03906H12.0508C11.9466 4.73958 11.7773 4.40104 11.543 4.02344C11.3216 3.64583 11.0221 3.29427 10.6445 2.96875C10.2799 2.63021 9.83073 2.35026 9.29688 2.12891C8.77604 1.90755 8.15755 1.79688 7.44141 1.79688C6.80339 1.79688 6.23698 1.89453 5.74219 2.08984C5.2474 2.28516 4.83073 2.55859 4.49219 2.91016C4.16667 3.26172 3.91927 3.67839 3.75 4.16016C3.58073 4.64193 3.49609 5.17578 3.49609 5.76172C3.49609 6.69922 3.75651 7.59766 4.27734 8.45703C4.8112 9.30339 5.47526 10.1432 6.26953 10.9766C7.0638 11.8099 7.92318 12.6432 8.84766 13.4766C9.77214 14.3099 10.6315 15.1758 11.4258 16.0742C12.2201 16.9727 12.8776 17.9167 13.3984 18.9062C13.9323 19.8828 14.1992 20.9375 14.1992 22.0703C14.1992 22.9167 14.0495 23.7695 13.75 24.6289C13.4635 25.4753 13.0143 26.237 12.4023 26.9141C11.7904 27.5911 11.0026 28.1445 10.0391 28.5742C9.07552 28.9909 7.92969 29.1992 6.60156 29.1992C5.85938 29.1992 5.14974 29.1276 4.47266 28.9844C3.80859 28.8542 3.1901 28.6914 2.61719 28.4961C2.05729 28.2878 1.54948 28.0664 1.09375 27.832C0.651042 27.5977 0.286458 27.3828 0 27.1875L0.449219 22.8711H0.9375C1.08073 23.4831 1.3151 24.069 1.64062 24.6289C1.96615 25.1758 2.36328 25.6641 2.83203 26.0938C3.3138 26.5104 3.86068 26.849 4.47266 27.1094C5.08464 27.3568 5.75521 27.4805 6.48438 27.4805C7.14844 27.4805 7.74089 27.3828 8.26172 27.1875C8.79557 26.9792 9.2513 26.6992 9.62891 26.3477C10.0065 25.9831 10.293 25.5534 10.4883 25.0586C10.6966 24.5638 10.8008 24.0234 10.8008 23.4375C10.8008 22.6172 10.651 21.862 10.3516 21.1719C10.0521 20.4688 9.65495 19.8047 9.16016 19.1797C8.67839 18.5547 8.125 17.9492 7.5 17.3633C6.88802 16.7773 6.25651 16.1914 5.60547 15.6055C4.95443 15.0065 4.31641 14.3945 3.69141 13.7695C3.07943 13.1445 2.52604 12.4805 2.03125 11.7773C1.54948 11.0612 1.15885 10.2995 0.859375 9.49219C0.559896 8.67188 0.410156 7.77344 0.410156 6.79688C0.410156 5.76823 0.605469 4.84375 0.996094 4.02344C1.39974 3.1901 1.92708 2.48047 2.57812 1.89453C3.24219 1.30859 3.99089 0.859375 4.82422 0.546875C5.65755 0.234375 6.51693 0.078125 7.40234 0.078125C8.05339 0.078125 8.65234 0.130208 9.19922 0.234375C9.74609 0.338542 10.2344 0.46224 10.6641 0.605469C11.1068 0.748698 11.4909 0.891927 11.8164 1.03516C12.1419 1.17839 12.4089 1.29557 12.6172 1.38672L12.4805 5.03906ZM31.7773 0.117188C33.9518 0.117188 35.957 0.47526 37.793 1.19141C39.6419 1.89453 41.237 2.89062 42.5781 4.17969C43.9193 5.45573 44.9674 6.99219 45.7227 8.78906C46.4779 10.5859 46.8555 12.5716 46.8555 14.7461C46.8555 15.9831 46.7122 17.2005 46.4258 18.3984C46.1393 19.5964 45.7161 20.7292 45.1562 21.7969C44.6094 22.8646 43.9323 23.8542 43.125 24.7656C42.3177 25.6641 41.3932 26.4453 40.3516 27.1094C39.3229 27.7604 38.1836 28.2682 36.9336 28.6328C35.6836 29.0104 34.3359 29.1992 32.8906 29.1992C30.7161 29.1992 28.7044 28.8542 26.8555 28.1641C25.0195 27.4609 23.431 26.4714 22.0898 25.1953C20.7487 23.9193 19.7005 22.3893 18.9453 20.6055C18.1901 18.8086 17.8125 16.8164 17.8125 14.6289C17.8125 13.3919 17.9557 12.1745 18.2422 10.9766C18.5286 9.77865 18.9453 8.63932 19.4922 7.55859C20.0521 6.47786 20.7292 5.48828 21.5234 4.58984C22.3307 3.67839 23.2487 2.89062 24.2773 2.22656C25.319 1.5625 26.4648 1.04818 27.7148 0.683594C28.9779 0.30599 30.332 0.117188 31.7773 0.117188ZM32.8906 27.4414C34.3359 27.4414 35.6576 27.181 36.8555 26.6602C38.0534 26.1393 39.082 25.3841 39.9414 24.3945C40.8138 23.4049 41.4909 22.2005 41.9727 20.7812C42.4544 19.349 42.6953 17.7279 42.6953 15.918C42.6953 13.9128 42.4609 12.0573 41.9922 10.3516C41.5365 8.63281 40.8529 7.14844 39.9414 5.89844C39.0299 4.63542 37.8906 3.65234 36.5234 2.94922C35.1693 2.23307 33.5872 1.875 31.7773 1.875C30.332 1.875 29.0104 2.13542 27.8125 2.65625C26.6146 3.16406 25.5794 3.90625 24.707 4.88281C23.8477 5.85938 23.1771 7.05729 22.6953 8.47656C22.2135 9.89583 21.9727 11.5104 21.9727 13.3203C21.9727 15.3125 22.2005 17.1745 22.6562 18.9062C23.112 20.625 23.7956 22.1159 24.707 23.3789C25.6185 24.6419 26.7578 25.638 28.125 26.3672C29.4922 27.0833 31.0807 27.4414 32.8906 27.4414ZM55.3906 20.957C55.3906 22.0638 55.4036 23.0339 55.4297 23.8672C55.4688 24.6875 55.5078 25.3971 55.5469 25.9961C55.599 26.5951 55.6576 27.0964 55.7227 27.5C55.8008 27.9036 55.8789 28.2422 55.957 28.5156V28.5938H51.2695V28.5156C51.3477 28.2422 51.4193 27.9036 51.4844 27.5C51.5625 27.0964 51.6211 26.5951 51.6602 25.9961C51.7122 25.3971 51.7513 24.6875 51.7773 23.8672C51.8164 23.0469 51.8359 22.0768 51.8359 20.957V8.24219C51.8359 7.13542 51.8164 6.17188 51.7773 5.35156C51.7513 4.51823 51.7122 3.80208 51.6602 3.20312C51.6211 2.60417 51.5625 2.10286 51.4844 1.69922C51.4193 1.28255 51.3477 0.9375 51.2695 0.664062V0.585938L52.0898 0.664062C52.3372 0.690104 52.6107 0.709635 52.9102 0.722656C53.2227 0.722656 53.5417 0.722656 53.8672 0.722656C54.375 0.722656 55.0586 0.664062 55.918 0.546875C56.7904 0.416667 57.8971 0.351562 59.2383 0.351562C60.4883 0.351562 61.6406 0.520833 62.6953 0.859375C63.763 1.19792 64.6875 1.69271 65.4688 2.34375C66.25 2.99479 66.8555 3.79557 67.2852 4.74609C67.7279 5.68359 67.9492 6.7513 67.9492 7.94922C67.9492 8.88672 67.8255 9.75911 67.5781 10.5664C67.3438 11.3607 67.0052 12.0833 66.5625 12.7344C66.1328 13.3854 65.612 13.9648 65 14.4727C64.388 14.9674 63.7044 15.3841 62.9492 15.7227L69.8047 25.3516C70.1432 25.8333 70.4557 26.25 70.7422 26.6016C71.0417 26.9531 71.3216 27.2591 71.582 27.5195C71.8555 27.7669 72.1159 27.9753 72.3633 28.1445C72.6107 28.3008 72.8646 28.4245 73.125 28.5156V28.5938H67.4805C67.4414 28.3464 67.3112 28.0208 67.0898 27.6172C66.8815 27.2005 66.6341 26.7904 66.3477 26.3867L59.4336 16.6406C59.1341 16.6667 58.8346 16.6927 58.5352 16.7188C58.2357 16.7318 57.9297 16.7383 57.6172 16.7383C57.2526 16.7383 56.8815 16.7253 56.5039 16.6992C56.1393 16.6732 55.7682 16.6276 55.3906 16.5625V20.957ZM55.3906 15.0391C55.7422 15.1172 56.1003 15.1758 56.4648 15.2148C56.8294 15.2409 57.181 15.2539 57.5195 15.2539C58.4961 15.2539 59.388 15.1107 60.1953 14.8242C61.0026 14.5247 61.6862 14.0755 62.2461 13.4766C62.819 12.8776 63.2617 12.1354 63.5742 11.25C63.8867 10.3516 64.043 9.30339 64.043 8.10547C64.043 7.12891 63.9323 6.24349 63.7109 5.44922C63.4896 4.65495 63.1576 3.98438 62.7148 3.4375C62.2852 2.8776 61.7383 2.44792 61.0742 2.14844C60.4102 1.83594 59.6354 1.67969 58.75 1.67969C57.8516 1.67969 57.1354 1.72526 56.6016 1.81641C56.0677 1.90755 55.6641 2.00521 55.3906 2.10938V15.0391ZM74.9023 0.585938C76.5299 0.585938 78.1445 0.579427 79.7461 0.566406C81.3607 0.553385 82.8385 0.540365 84.1797 0.527344C85.5208 0.501302 86.6667 0.46875 87.6172 0.429688C88.5677 0.390625 89.2122 0.338542 89.5508 0.273438L88.5938 2.87109C88.1641 2.75391 87.6628 2.64974 87.0898 2.55859C86.5951 2.48047 85.9896 2.40885 85.2734 2.34375C84.5703 2.26562 83.7565 2.22656 82.832 2.22656C82.5195 2.22656 82.1419 2.23958 81.6992 2.26562C81.2695 2.27865 80.8529 2.29818 80.4492 2.32422C79.9805 2.35026 79.5052 2.3763 79.0234 2.40234V13.0664C80.3646 13.0534 81.5755 13.0143 82.6562 12.9492C83.737 12.8841 84.6549 12.819 85.4102 12.7539C86.2956 12.6758 87.0768 12.5846 87.7539 12.4805L87.1484 15.3125C86.25 15.1953 85.332 15.0846 84.3945 14.9805C83.5872 14.8893 82.7083 14.8112 81.7578 14.7461C80.8073 14.668 79.8958 14.6289 79.0234 14.6289V26.875C80.5599 26.875 81.9727 26.8099 83.2617 26.6797C84.5508 26.5495 85.6771 26.3997 86.6406 26.2305C87.7604 26.0482 88.7826 25.8333 89.707 25.5859L89.1406 28.75C88.9844 28.737 88.75 28.724 88.4375 28.7109C88.125 28.6979 87.7734 28.6849 87.3828 28.6719C87.0052 28.6589 86.6016 28.6458 86.1719 28.6328C85.7552 28.6328 85.3581 28.6263 84.9805 28.6133C84.6029 28.6133 84.2643 28.6068 83.9648 28.5938C83.6784 28.5938 83.4701 28.5938 83.3398 28.5938H74.9023V28.5156C74.9805 28.2422 75.0521 27.9036 75.1172 27.5C75.1953 27.0964 75.2604 26.5951 75.3125 25.9961C75.3646 25.3971 75.4036 24.6875 75.4297 23.8672C75.4557 23.0339 75.4688 22.0638 75.4688 20.957V8.24219C75.4688 7.13542 75.4557 6.17188 75.4297 5.35156C75.4036 4.51823 75.3646 3.80208 75.3125 3.20312C75.2604 2.59115 75.1953 2.08333 75.1172 1.67969C75.0521 1.27604 74.9805 0.9375 74.9023 0.664062V0.585938ZM96.2695 0.585938V0.664062C96.2435 0.729167 96.224 0.826823 96.2109 0.957031C96.1979 1.08724 96.1914 1.20443 96.1914 1.30859C96.1914 1.71224 96.2435 2.16146 96.3477 2.65625C96.4648 3.13802 96.6797 3.74349 96.9922 4.47266L105.645 23.9844L114.004 4.62891C114.199 4.14714 114.408 3.61979 114.629 3.04688C114.85 2.47396 114.961 1.89453 114.961 1.30859C114.961 1.15234 114.948 1.02214 114.922 0.917969C114.896 0.800781 114.87 0.716146 114.844 0.664062V0.585938H118.848V0.664062C118.6 0.911458 118.301 1.35417 117.949 1.99219C117.598 2.63021 117.214 3.41797 116.797 4.35547L105.605 29.1992H104.043L93.4375 5.3125C93.1901 4.7526 92.9297 4.21224 92.6562 3.69141C92.3958 3.17057 92.1484 2.70182 91.9141 2.28516C91.6797 1.85547 91.4714 1.4974 91.2891 1.21094C91.1068 0.924479 90.9831 0.742188 90.918 0.664062V0.585938H96.2695ZM121.016 28.5156C121.094 28.2422 121.165 27.9036 121.23 27.5C121.296 27.0964 121.354 26.5951 121.406 25.9961C121.458 25.3971 121.497 24.6875 121.523 23.8672C121.549 23.0339 121.562 22.0638 121.562 20.957V8.24219C121.562 7.13542 121.549 6.17188 121.523 5.35156C121.497 4.51823 121.458 3.80208 121.406 3.20312C121.354 2.59115 121.296 2.08333 121.23 1.67969C121.165 1.27604 121.094 0.9375 121.016 0.664062V0.585938H125.684V0.664062C125.605 0.9375 125.527 1.27604 125.449 1.67969C125.384 2.08333 125.326 2.59115 125.273 3.20312C125.234 3.80208 125.195 4.51823 125.156 5.35156C125.13 6.17188 125.117 7.13542 125.117 8.24219V20.957C125.117 22.0638 125.13 23.0339 125.156 23.8672C125.195 24.6875 125.234 25.3971 125.273 25.9961C125.326 26.5951 125.384 27.0964 125.449 27.5C125.527 27.9036 125.605 28.2422 125.684 28.5156V28.5938H121.016V28.5156ZM144.238 0.117188C146.413 0.117188 148.418 0.47526 150.254 1.19141C152.103 1.89453 153.698 2.89062 155.039 4.17969C156.38 5.45573 157.428 6.99219 158.184 8.78906C158.939 10.5859 159.316 12.5716 159.316 14.7461C159.316 15.9831 159.173 17.2005 158.887 18.3984C158.6 19.5964 158.177 20.7292 157.617 21.7969C157.07 22.8646 156.393 23.8542 155.586 24.7656C154.779 25.6641 153.854 26.4453 152.812 27.1094C151.784 27.7604 150.645 28.2682 149.395 28.6328C148.145 29.0104 146.797 29.1992 145.352 29.1992C143.177 29.1992 141.165 28.8542 139.316 28.1641C137.48 27.4609 135.892 26.4714 134.551 25.1953C133.21 23.9193 132.161 22.3893 131.406 20.6055C130.651 18.8086 130.273 16.8164 130.273 14.6289C130.273 13.3919 130.417 12.1745 130.703 10.9766C130.99 9.77865 131.406 8.63932 131.953 7.55859C132.513 6.47786 133.19 5.48828 133.984 4.58984C134.792 3.67839 135.71 2.89062 136.738 2.22656C137.78 1.5625 138.926 1.04818 140.176 0.683594C141.439 0.30599 142.793 0.117188 144.238 0.117188ZM145.352 27.4414C146.797 27.4414 148.118 27.181 149.316 26.6602C150.514 26.1393 151.543 25.3841 152.402 24.3945C153.275 23.4049 153.952 22.2005 154.434 20.7812C154.915 19.349 155.156 17.7279 155.156 15.918C155.156 13.9128 154.922 12.0573 154.453 10.3516C153.997 8.63281 153.314 7.14844 152.402 5.89844C151.491 4.63542 150.352 3.65234 148.984 2.94922C147.63 2.23307 146.048 1.875 144.238 1.875C142.793 1.875 141.471 2.13542 140.273 2.65625C139.076 3.16406 138.04 3.90625 137.168 4.88281C136.309 5.85938 135.638 7.05729 135.156 8.47656C134.674 9.89583 134.434 11.5104 134.434 13.3203C134.434 15.3125 134.661 17.1745 135.117 18.9062C135.573 20.625 136.257 22.1159 137.168 23.3789C138.079 24.6419 139.219 25.638 140.586 26.3672C141.953 27.0833 143.542 27.4414 145.352 27.4414ZM167.852 20.957C167.852 22.0638 167.865 23.0339 167.891 23.8672C167.93 24.6875 167.969 25.3971 168.008 25.9961C168.06 26.5951 168.118 27.0964 168.184 27.5C168.262 27.9036 168.34 28.2422 168.418 28.5156V28.5938H163.73V28.5156C163.809 28.2422 163.88 27.9036 163.945 27.5C164.023 27.0964 164.082 26.5951 164.121 25.9961C164.173 25.3971 164.212 24.6875 164.238 23.8672C164.277 23.0469 164.297 22.0768 164.297 20.957V8.24219C164.297 7.13542 164.277 6.17188 164.238 5.35156C164.212 4.51823 164.173 3.80208 164.121 3.20312C164.082 2.60417 164.023 2.10286 163.945 1.69922C163.88 1.28255 163.809 0.9375 163.73 0.664062V0.585938L164.551 0.664062C164.798 0.690104 165.072 0.709635 165.371 0.722656C165.684 0.722656 166.003 0.722656 166.328 0.722656C166.836 0.722656 167.52 0.664062 168.379 0.546875C169.251 0.416667 170.358 0.351562 171.699 0.351562C172.949 0.351562 174.102 0.520833 175.156 0.859375C176.224 1.19792 177.148 1.69271 177.93 2.34375C178.711 2.99479 179.316 3.79557 179.746 4.74609C180.189 5.68359 180.41 6.7513 180.41 7.94922C180.41 8.88672 180.286 9.75911 180.039 10.5664C179.805 11.3607 179.466 12.0833 179.023 12.7344C178.594 13.3854 178.073 13.9648 177.461 14.4727C176.849 14.9674 176.165 15.3841 175.41 15.7227L182.266 25.3516C182.604 25.8333 182.917 26.25 183.203 26.6016C183.503 26.9531 183.783 27.2591 184.043 27.5195C184.316 27.7669 184.577 27.9753 184.824 28.1445C185.072 28.3008 185.326 28.4245 185.586 28.5156V28.5938H179.941C179.902 28.3464 179.772 28.0208 179.551 27.6172C179.342 27.2005 179.095 26.7904 178.809 26.3867L171.895 16.6406C171.595 16.6667 171.296 16.6927 170.996 16.7188C170.697 16.7318 170.391 16.7383 170.078 16.7383C169.714 16.7383 169.342 16.7253 168.965 16.6992C168.6 16.6732 168.229 16.6276 167.852 16.5625V20.957ZM167.852 15.0391C168.203 15.1172 168.561 15.1758 168.926 15.2148C169.29 15.2409 169.642 15.2539 169.98 15.2539C170.957 15.2539 171.849 15.1107 172.656 14.8242C173.464 14.5247 174.147 14.0755 174.707 13.4766C175.28 12.8776 175.723 12.1354 176.035 11.25C176.348 10.3516 176.504 9.30339 176.504 8.10547C176.504 7.12891 176.393 6.24349 176.172 5.44922C175.951 4.65495 175.618 3.98438 175.176 3.4375C174.746 2.8776 174.199 2.44792 173.535 2.14844C172.871 1.83594 172.096 1.67969 171.211 1.67969C170.312 1.67969 169.596 1.72526 169.062 1.81641C168.529 1.90755 168.125 2.00521 167.852 2.10938V15.0391ZM206.738 28.5938V28.5156C206.764 28.4505 206.784 28.3529 206.797 28.2227C206.81 28.0924 206.816 27.9753 206.816 27.8711C206.816 27.4674 206.758 27.0247 206.641 26.543C206.536 26.0482 206.328 25.4362 206.016 24.707L203.652 19.3945C202.923 19.3685 201.953 19.3555 200.742 19.3555C199.531 19.3555 198.223 19.3555 196.816 19.3555C195.788 19.3555 194.792 19.3555 193.828 19.3555C192.878 19.3555 192.018 19.3685 191.25 19.3945L189.004 24.5508C188.809 25.0326 188.6 25.5599 188.379 26.1328C188.158 26.7057 188.047 27.2852 188.047 27.8711C188.047 28.0404 188.06 28.1836 188.086 28.3008C188.112 28.4049 188.138 28.4766 188.164 28.5156V28.5938H184.18V28.5156C184.414 28.2682 184.707 27.832 185.059 27.207C185.41 26.569 185.794 25.7747 186.211 24.8242L197.402 0H198.965L209.57 23.8672C209.818 24.4271 210.072 24.974 210.332 25.5078C210.605 26.0286 210.859 26.4974 211.094 26.9141C211.328 27.3307 211.536 27.6823 211.719 27.9688C211.901 28.2552 212.025 28.4375 212.09 28.5156V28.5938H206.738ZM194.082 17.6758C194.837 17.6758 195.612 17.6758 196.406 17.6758C197.201 17.6628 197.975 17.6562 198.73 17.6562C199.499 17.6432 200.234 17.6367 200.938 17.6367C201.641 17.6237 202.279 17.6107 202.852 17.5977L197.363 5.19531L191.973 17.6758H194.082Z" fill="white"/>
</svg>
